<?xml version="1.0" encoding="utf-8"?>
<!-- Generator: Adobe Illustrator 16.0.0, SVG Export Plug-In . SVG Version: 6.00 Build 0)  -->
<!DOCTYPE svg PUBLIC "-//W3C//DTD SVG 1.1//EN" "http://www.w3.org/Graphics/SVG/1.1/DTD/svg11.dtd">
<svg version="1.1" id="Layer_1" xmlns="http://www.w3.org/2000/svg" xmlns:xlink="http://www.w3.org/1999/xlink" x="0px" y="0px"
	 width="1024px" height="221px" viewBox="0 0 1024 221" enable-background="new 0 0 1024 221" xml:space="preserve">
<path fill="#FFFFFF" d="M91.777,0.908c2.227,0.341,4.453,0.675,6.679,1.025c17.724,2.787,33.021,10.187,45.062,23.642
	c9.005,10.063,14.59,21.868,17.162,35.028c3.64,18.63,2.609,36.994-4.65,54.665c-8.888,21.631-25.121,35.553-47.425,42.229
	c-22.725,6.804-45.213,5.813-66.69-4.699C20.929,142.525,8.544,125.334,3.46,102.812c-0.838-3.707-1.185-7.521-1.775-11.284
	c-0.039-0.243-0.22-0.464-0.334-0.695c0-4.901,0-9.802,0-14.702c0.226-2.027,0.445-4.054,0.679-6.08
	c1.172-10.142,3.81-19.876,8.585-28.939C22.11,19.292,40.706,7.208,64.627,2.634c4.303-0.822,8.699-1.163,13.052-1.727
	C82.378,0.908,87.078,0.908,91.777,0.908z M113.206,76.181c-0.106-0.015-0.213-0.031-0.319-0.046
	c-0.153-1.231-0.351-2.458-0.453-3.693c-0.681-8.182-2.82-15.912-6.832-23.143c-5.255-9.471-14.919-15.04-25.983-13.94
	c-7.871,0.782-14.028,4.268-18.715,10.397c-7.221,9.445-9.361,20.56-9.947,32.027c-0.239,4.668,0.209,9.394,0.644,14.065
	c0.588,6.325,2.321,12.374,5.059,18.148c5.507,11.62,16.176,18.811,29.343,17.074c5.966-0.788,11.006-3.434,15.071-7.801
	c6.688-7.182,9.695-16.03,10.923-25.487C112.75,87.96,112.826,82.051,113.206,76.181z"/>
<path fill="#FFFFFF" d="M285.01,0.908c1.486,0.188,2.968,0.424,4.459,0.556c23.315,2.069,39.196,16.246,45.713,38.882
	c2.348,8.153,3.417,16.507,3.437,24.957c0.07,30.431,0.028,60.861,0.025,91.291c0,0.448-0.04,0.895-0.066,1.441
	c-15.964,0-31.864,0-48.014,0c0-0.68,0-1.338,0-1.997c0-28.095,0.008-56.187-0.006-84.281c-0.003-6.192-0.793-12.269-3.159-18.05
	c-4.476-10.941-13.606-14.75-24.434-13.637c-12.092,1.243-22.932,13.478-22.792,28.044c0.282,29.229,0.084,58.467,0.084,87.7
	c0,0.68,0,1.36,0,2.182c-16.029,0-31.969,0-47.969,0c-0.643-51.049,0.937-102.09-1.301-153.211c13.783,0,27.618,0,41.643,0
	c0.735,6.99,1.475,14.031,2.26,21.502c0.66-0.578,1.122-0.849,1.401-1.248c9.504-13.516,22.635-21.057,38.93-23.364
	c1.809-0.256,3.651-0.274,5.475-0.437c0.413-0.037,0.813-0.216,1.218-0.33C282.946,0.908,283.979,0.908,285.01,0.908z"/>
<path fill="#FFFFFF" d="M447.984,0.908c2.063,0.213,4.123,0.452,6.187,0.636c14.882,1.328,28.152,6.354,39.033,16.837
	c8.729,8.413,14.266,18.702,17.69,30.18c3.929,13.157,4.902,26.591,3.545,40.216c-0.261,2.593-0.617,5.174-0.945,7.877
	c-33.237,0-66.277,0-99.448,0c0.568,7.615,3.663,13.807,9.359,18.653c6.846,5.83,15.034,8.66,23.807,9.674
	c17.478,2.021,34.589-0.01,51.331-5.313c0.487-0.151,0.977-0.295,1.628-0.489c2.104,10.766,4.194,21.463,6.349,32.48
	c-3.323,1.152-6.61,2.406-9.969,3.437c-12.441,3.815-25.23,5.487-38.202,6.03c-13.47,0.563-26.796-0.23-39.729-4.324
	c-25.289-8-41.538-24.709-47.678-50.451c-5.608-23.512-3.261-46.327,8.61-67.654c11.523-20.7,29.311-32.834,52.858-36.453
	c3.554-0.546,7.171-0.667,10.757-1.006c0.353-0.034,0.691-0.217,1.037-0.331C445.463,0.908,446.725,0.908,447.984,0.908z
	 M470.583,63.791c-0.323-2.725-0.485-5.327-0.962-7.87c-1.174-6.274-3.494-12.093-8.368-16.443
	c-8.142-7.267-17.684-8.124-27.614-4.783c-8.875,2.987-13.949,9.95-17.251,18.316c-1.354,3.426-2.33,6.968-2.54,10.78
	C432.704,63.791,451.409,63.791,470.583,63.791z"/>
<path fill="#FFFFFF" d="M699.325,220.08c0.056-0.617,0.159-1.232,0.159-1.85c0.009-54.584,0.095-109.167-0.05-163.75
	C699.394,38.89,698.68,23.3,698.278,7.71c-0.013-0.446-0.001-0.893-0.001-1.423c8.207,0,16.318,0,24.617,0
	c0.532,8.682,1.063,17.312,1.592,25.941c0.13,0.041,0.263,0.08,0.394,0.121c0.293-0.44,0.599-0.873,0.88-1.319
	c10.321-16.317,25.271-25.214,44.403-27.442c11.887-1.384,23.413-0.201,34.393,4.757c13.626,6.152,23.427,16.263,30.239,29.351
	c6.209,11.93,9.014,24.736,9.472,38.083c0.54,15.762-1.404,31.142-8.072,45.618c-10.084,21.891-26.896,35.475-50.963,39.346
	c-15.714,2.529-30.666,0.08-44.156-8.877c-5.106-3.393-9.323-7.688-12.709-12.791c-0.25-0.379-0.503-0.758-0.774-1.121
	c-0.05-0.067-0.189-0.07-0.478-0.165c-0.036,0.585-0.103,1.112-0.103,1.646c-0.004,26.379-0.004,52.76,0.003,79.14
	c0,0.504,0.105,1.005,0.161,1.508C717.892,220.08,708.608,220.08,699.325,220.08z M727.157,84.341c-0.048,0-0.1,0-0.147,0
	c0,4.329-0.15,8.665,0.048,12.985c0.153,3.333,0.364,6.745,1.202,9.953c7.716,29.526,39.348,40.075,63.126,27.264
	c9.075-4.889,14.982-12.669,18.999-21.96c4.154-9.614,5.698-19.756,5.813-30.126c0.129-11.814-1.983-23.162-7.46-33.794
	c-10.256-19.918-32.313-28.778-52.825-20.695c-17.845,7.032-26.393,21.21-28.649,39.478
	C726.579,72.998,727.157,78.706,727.157,84.341z"/>
<path fill="#FFFFFF" d="M878.805,220.08c0.056-0.617,0.158-1.232,0.158-1.85c0.008-55.959,0.084-111.917-0.047-167.874
	c-0.032-13.826-0.731-27.652-1.12-41.478c-0.022-0.84-0.003-1.682-0.003-2.6c8.204,0,16.321,0,24.604,0
	c0.532,8.673,1.063,17.304,1.591,25.935c0.138,0.035,0.273,0.071,0.411,0.106c0.322-0.495,0.65-0.986,0.97-1.484
	c10.324-16.141,25.175-25.009,44.176-27.239c12.55-1.474,24.671-0.106,36.11,5.496c15.225,7.455,25.276,19.609,31.591,35
	c5.592,13.628,7.232,27.895,6.452,42.502c-0.616,11.56-2.724,22.81-7.38,33.473c-7.958,18.22-20.874,31.468-40.026,37.84
	c-18.126,6.033-35.951,5.234-52.891-4.256c-6.484-3.633-11.727-8.691-15.756-14.952c-0.153-0.239-0.312-0.479-0.489-0.698
	c-0.059-0.072-0.193-0.081-0.514-0.203c-0.056,0.521-0.147,0.987-0.148,1.452c-0.006,26.556-0.006,53.108,0.001,79.663
	c0,0.391,0.104,0.775,0.16,1.165C897.371,220.08,888.088,220.08,878.805,220.08z M906.636,84.409c-0.049,0-0.1,0-0.147,0
	c0,4.045-0.07,8.091,0.024,12.134c0.063,2.668,0.113,5.378,0.61,7.988c4.385,23.08,25.523,38.848,50.323,34.664
	c13.573-2.289,23.452-9.785,29.979-21.65c7.175-13.044,8.91-27.229,8.056-41.821c-0.631-10.761-3.37-20.955-9.065-30.245
	c-10.738-17.521-31.173-24.972-50.274-17.788c-18.373,6.91-27.14,21.3-29.401,39.993C906.073,73.183,906.636,78.83,906.636,84.409z"
	/>
<path fill="#FFFFFF" d="M656.926,158.139c-7.947,0-15.73,0-23.516-0.007c-0.45,0-0.901-0.039-1.458-0.065
	c-0.735-6.316-1.463-12.584-2.239-19.256c-0.603,0.435-1.123,0.664-1.439,1.058c-13.237,16.373-30.684,22.851-51.382,21.452
	c-10.899-0.733-20.667-4.453-28.56-12.168c-9.504-9.284-13.414-20.773-12.857-33.883c0.511-11.945,4.61-22.409,13.043-31.059
	c6.079-6.233,13.412-10.583,21.429-13.837c11.052-4.488,22.63-6.851,34.474-7.887c7.508-0.657,15.052-0.927,22.741-1.38
	c0.263-10.267-0.913-20.294-8.455-28.438c-4.661-5.035-10.684-7.651-17.377-8.467c-17.081-2.082-33.107,1.124-47.894,10.042
	c-0.274,0.167-0.558,0.325-0.979,0.568c-1.149-3.336-2.261-6.542-3.355-9.753c-0.845-2.476-1.603-4.984-2.537-7.426
	c-0.415-1.087-0.186-1.568,0.797-2.142c7.401-4.336,15.346-7.316,23.66-9.31c14.241-3.416,28.621-4.461,43.044-1.379
	c20.065,4.289,32.468,16.678,37.799,36.243c1.882,6.902,2.797,13.95,2.81,21.095c0.033,18.234-0.146,36.47,0.069,54.701
	c0.136,11.317,0.809,22.632,1.316,33.942C656.166,153.159,656.61,155.521,656.926,158.139z M627.808,80.865
	c-4.887,0-9.522-0.17-14.143,0.036c-9.688,0.429-19.243,1.75-28.391,5.159c-5.971,2.225-11.412,5.297-15.585,10.219
	c-5.731,6.758-7.101,14.688-6.157,23.217c1.175,10.621,8.063,18.814,18.393,20.771c13.991,2.651,26.362-0.969,36.402-11.176
	c6.457-6.563,9.893-14.451,9.528-23.875c-0.25-6.486-0.049-12.985-0.049-19.481C627.808,84.097,627.808,82.456,627.808,80.865z"/>
</svg>
